PathFileType	4	(X/Y/Z)	C:\Users\°ÂÌØÂü\Desktop\20210112\bx_y_0_1802-Unnamed.trc
DataRate	CameraRate	NumFrames	NumMarkers	Units	OrigDataRate	OrigDataStartFrame	OrigNumFrames
50.00	50.00	       4	0	mm	50.00	1	       375
Frame#	Time	
		

1	0.000	-692.01886	-73.62184	1541.60022				-645.00690	280.72369	877.64075	-584.73358	219.05322	816.53583				-724.87097	249.78758	641.80847	-692.45490	82.80472	575.23669	-728.79358	245.39624	576.65747	-669.12885	21.20684	519.48334	-770.72559	253.83760	503.48532	-675.45129	205.43033	532.27051	-716.67694	80.07757	215.77972	-664.68329	-65.29451	164.59059	-711.64685	151.21089	216.21011	-771.47705	221.49866	205.37476	-882.47778	296.06058	144.61819	-602.91608	19.96645	166.13141	-675.52295	171.67009	156.51515	-595.04987	221.77879	173.71468	-666.82251	298.09833	160.95631	-560.30579	260.88766	165.17633	-528.17786	304.30954	146.31851	-654.41992	113.47417	1845.15479	-721.66180	289.28320	1530.75146	-623.40613	-76.66889	160.40814	-517.82312	-72.85273	142.77669	-628.98254	306.18903	163.26453	-626.50928	105.25117	1429.10339	-766.85126	-3.01962	207.44308	-794.56921	57.58778	174.90533	-796.56616	171.76328	183.92485	-795.60168	95.00307	1053.15662	-764.63190	-32.28558	488.27258	-876.14929	-78.62049	141.78596	-694.41632	-46.32262	716.64142	-702.25513	-26.01328	615.10834	-716.97644	-22.62034	566.84100	-559.72906	-41.73017	162.50246	-596.98834	-3.92662	1049.46423	-592.30682	221.72838	1070.67212	-585.07758	-0.54236	803.03229	-688.91498	143.60149	574.53510	-674.55237	57.03339	156.33174	-693.54999	271.69324	748.59985	-650.51978	-66.88026	858.20947	
2	0.020	-691.73419	-73.58136	1541.70056				-645.00690	280.72369	877.64075	-584.73157	219.15465	816.45728				-724.53552	249.21002	641.59509	-692.55035	82.77169	574.84711	-728.77539	245.41899	576.79596	-669.16321	21.12715	519.52649	-770.47034	254.11285	503.37399	-675.38983	205.35194	532.34448	-717.12042	80.20725	216.13278	-664.63715	-65.27013	164.51535	-711.81494	151.52058	216.08705	-771.50098	221.60835	205.44780	-882.57355	295.99719	144.45621	-602.98083	20.02861	166.11789	-675.30359	171.59724	156.77390	-594.96509	221.93823	173.67229	-666.81030	298.02960	160.91771	-560.22266	260.94510	165.44589	-528.07770	304.24625	146.45256	-653.92017	113.43288	1845.21716	-721.56549	289.40274	1530.89124	-623.53571	-76.74432	160.48589	-517.72485	-72.97910	142.87009	-628.85358	305.76163	163.30040	-626.36609	105.28140	1429.01929	-766.97089	-3.09971	207.72231	-794.55298	57.59197	174.97029	-796.67511	171.37279	183.96005	-795.53271	94.88017	1053.09912	-764.60217	-32.43422	488.15842	-875.99139	-78.70409	141.37393	-694.30939	-46.21261	716.84570	-702.17517	-25.79302	614.98413	-716.80591	-22.81447	567.01160	-559.82086	-41.75938	162.38733	-596.98834	-3.92662	1049.46423	-592.19037	221.51242	1070.80811	-585.05005	-0.61355	803.02631	-688.71710	143.74529	574.20026	-674.55237	57.03339	156.33174	-693.80511	271.79550	748.82275	-650.45624	-66.78822	858.26160	
3	0.040	-691.31519	-73.28813	1541.83496				-644.67133	281.15790	878.03778	-584.73157	219.15465	816.45728				-724.52063	249.23344	641.61639	-692.49158	82.61649	575.05170	-728.77539	245.41899	576.79596	-668.93164	21.08584	519.58813	-770.72559	253.83760	503.48532	-675.45129	205.43033	532.27051	-716.76648	79.87276	216.30057	-664.67804	-65.33467	164.55650	-711.74933	151.36427	216.02980	-771.53601	221.46474	205.25386	-882.74518	296.14548	144.57680	-603.11609	20.13151	166.10046	-675.60535	171.45511	156.68756	-595.07074	221.77637	173.57326	-666.81030	298.02960	160.91771	-560.27686	261.00037	165.28004	-528.07770	304.24625	146.45256	-653.60321	113.53608	1845.08386	-721.37128	289.49249	1530.93616	-623.26776	-76.78941	160.41209	-517.66736	-72.72713	142.77681	-628.99921	305.92520	163.20601	-626.30310	105.20233	1428.95886	-766.94250	-3.20636	207.75679	-794.52814	57.53234	174.91707	-796.74835	171.50221	184.04405	-795.35052	94.80769	1053.24841	-764.60217	-32.43422	488.15842	-875.87817	-78.62728	141.29668	-694.32269	-46.16342	716.66583	-702.28644	-26.03800	615.02997	-716.89252	-22.70065	566.88007	-559.82086	-41.75938	162.38733	-596.61249	-4.12529	1049.71216	-592.11493	221.70497	1070.71777	-585.05090	-0.51210	802.89392	-688.93958	143.64156	574.24219	-674.67834	57.20728	156.32884	-693.77637	271.90283	748.91071	-650.24158	-67.14434	858.47681	
4	0.060	-690.97552	-73.36554	1541.87207				-644.77820	281.02878	877.99475	-584.65802	219.27921	816.48926				-724.58392	249.28508	641.47443	-692.44904	82.71655	575.03204	-728.75311	245.43968	576.76038	-669.25775	21.10765	519.57794	-770.63879	253.98198	503.26797	-675.45129	205.43033	532.27051	-716.61212	79.92698	215.87816	-664.66760	-65.26226	164.54309	-711.75098	151.15161	216.31905	-771.54712	221.55989	205.35545	-882.63568	296.12158	144.50882	-602.83258	20.01245	165.90334	-675.30359	171.59724	156.77390	-595.07874	221.97998	173.73282	-666.74738	298.05936	160.84969	-560.36029	260.76535	165.13327	-527.99017	304.09348	146.41525	-653.06940	113.53425	1845.18372	-721.05444	289.62979	1531.41345	-623.44214	-76.90675	160.51662	-517.78259	-72.85344	142.71603	-628.93866	305.99884	163.43620	-626.22345	104.74039	1428.61914	-766.87280	-2.86467	207.68642	-794.56866	57.55078	174.87196	-796.66016	171.64230	184.00398	-795.27405	94.74541	1053.37549	-764.66492	-32.52284	488.13205	-875.95239	-78.96152	141.26910	-694.23248	-46.02418	716.72253	-702.13702	-26.12793	615.27942	-716.93823	-22.87416	566.93384	-559.73169	-41.76733	162.51889	-596.43317	-4.03212	1049.45935	-592.02240	221.73550	1070.66614	-584.98547	-0.58718	802.89349	-688.89441	143.61038	574.55786	-674.55237	57.03339	156.33174	-693.79016	271.94382	748.84344	-650.24158	-67.14434	858.47681	
